<?xml version="1.0" encoding="UTF-8" ?>
<svg version="1.1" width="100" height="100" xmlns="http://www.w3.org/2000/svg" shape-rendering="crispEdges">
<rect x="37" y="22" width="4" height="1" fill="#FFFFFF" />
<rect x="36" y="23" width="2" height="1" fill="#FFFFFF" />
<rect x="40" y="23" width="2" height="1" fill="#FFFFFF" />
<rect x="36" y="24" width="1" height="2" fill="#FFFFFF" />
<rect x="41" y="24" width="1" height="2" fill="#FFFFFF" />
<rect x="35" y="25" width="1" height="16" fill="#FFFFFF" />
<rect x="42" y="25" width="1" height="5" fill="#FFFFFF" />
<rect x="20" y="28" width="2" height="3" fill="#FFFFFF" />
<rect x="30" y="29" width="3" height="2" fill="#FFFFFF" />
<rect x="41" y="29" width="1" height="3" fill="#FFFFFF" />
<rect x="22" y="30" width="1" height="3" fill="#FFFFFF" />
<rect x="28" y="30" width="2" height="3" fill="#FFFFFF" />
<rect x="20" y="31" width="1" height="3" fill="#FFFFFF" />
<rect x="25" y="31" width="3" height="1" fill="#FFFFFF" />
<rect x="30" y="31" width="2" height="1" fill="#FFFFFF" />
<rect x="40" y="31" width="1" height="2" fill="#FFFFFF" />
<rect x="19" y="32" width="1" height="5" fill="#FFFFFF" />
<rect x="23" y="32" width="3" height="1" fill="#FFFFFF" />
<rect x="39" y="32" width="1" height="2" fill="#FFFFFF" />
<rect x="18" y="33" width="1" height="2" fill="#FFFFFF" />
<rect x="21" y="33" width="1" height="1" fill="#FFFFFF" />
<rect x="23" y="33" width="1" height="2" fill="#FFFFFF" />
<rect x="27" y="33" width="2" height="1" fill="#FFFFFF" />
<rect x="38" y="33" width="1" height="1" fill="#FFFFFF" />
<rect x="15" y="34" width="3" height="1" fill="#FFFFFF" />
<rect x="24" y="34" width="4" height="1" fill="#FFFFFF" />
<rect x="36" y="34" width="2" height="1" fill="#FFFFFF" />
<rect x="12" y="35" width="4" height="1" fill="#FFFFFF" />
<rect x="24" y="35" width="2" height="2" fill="#FFFFFF" />
<rect x="36" y="35" width="1" height="1" fill="#FFFFFF" />
<rect x="51" y="35" width="2" height="2" fill="#FFFFFF" />
<rect x="60" y="35" width="5" height="1" fill="#FFFFFF" />
<rect x="12" y="36" width="2" height="1" fill="#FFFFFF" />
<rect x="18" y="36" width="1" height="3" fill="#FFFFFF" />
<rect x="21" y="36" width="3" height="1" fill="#FFFFFF" />
<rect x="33" y="36" width="2" height="1" fill="#FFFFFF" />
<rect x="38" y="36" width="5" height="1" fill="#FFFFFF" />
<rect x="50" y="36" width="1" height="7" fill="#FFFFFF" />
<rect x="53" y="36" width="2" height="1" fill="#FFFFFF" />
<rect x="59" y="36" width="2" height="1" fill="#FFFFFF" />
<rect x="64" y="36" width="2" height="1" fill="#FFFFFF" />
<rect x="13" y="37" width="3" height="1" fill="#FFFFFF" />
<rect x="20" y="37" width="2" height="1" fill="#FFFFFF" />
<rect x="25" y="37" width="1" height="2" fill="#FFFFFF" />
<rect x="31" y="37" width="3" height="1" fill="#FFFFFF" />
<rect x="36" y="37" width="3" height="1" fill="#FFFFFF" />
<rect x="42" y="37" width="2" height="1" fill="#FFFFFF" />
<rect x="54" y="37" width="1" height="3" fill="#FFFFFF" />
<rect x="59" y="37" width="1" height="4" fill="#FFFFFF" />
<rect x="65" y="37" width="2" height="1" fill="#FFFFFF" />
<rect x="68" y="37" width="8" height="1" fill="#FFFFFF" />
<rect x="98" y="37" width="2" height="1" fill="#FFFFFF" />
<rect x="15" y="38" width="3" height="1" fill="#FFFFFF" />
<rect x="19" y="38" width="1" height="2" fill="#FFFFFF" />
<rect x="26" y="38" width="1" height="3" fill="#FFFFFF" />
<rect x="29" y="38" width="3" height="1" fill="#FFFFFF" />
<rect x="36" y="38" width="1" height="1" fill="#FFFFFF" />
<rect x="43" y="38" width="2" height="1" fill="#FFFFFF" />
<rect x="66" y="38" width="3" height="1" fill="#FFFFFF" />
<rect x="75" y="38" width="3" height="1" fill="#FFFFFF" />
<rect x="97" y="38" width="2" height="1" fill="#FFFFFF" />
<rect x="16" y="39" width="2" height="2" fill="#FFFFFF" />
<rect x="20" y="39" width="2" height="1" fill="#FFFFFF" />
<rect x="27" y="39" width="3" height="1" fill="#FFFFFF" />
<rect x="44" y="39" width="1" height="7" fill="#FFFFFF" />
<rect x="53" y="39" width="1" height="2" fill="#FFFFFF" />
<rect x="66" y="39" width="2" height="1" fill="#FFFFFF" />
<rect x="77" y="39" width="2" height="1" fill="#FFFFFF" />
<rect x="96" y="39" width="2" height="1" fill="#FFFFFF" />
<rect x="15" y="40" width="1" height="4" fill="#FFFFFF" />
<rect x="21" y="40" width="5" height="2" fill="#FFFFFF" />
<rect x="27" y="40" width="1" height="1" fill="#FFFFFF" />
<rect x="34" y="40" width="1" height="6" fill="#FFFFFF" />
<rect x="52" y="40" width="1" height="1" fill="#FFFFFF" />
<rect x="58" y="40" width="1" height="2" fill="#FFFFFF" />
<rect x="66" y="40" width="1" height="6" fill="#FFFFFF" />
<rect x="78" y="40" width="2" height="1" fill="#FFFFFF" />
<rect x="94" y="40" width="3" height="1" fill="#FFFFFF" />
<rect x="14" y="41" width="1" height="3" fill="#FFFFFF" />
<rect x="16" y="41" width="1" height="1" fill="#FFFFFF" />
<rect x="20" y="41" width="1" height="2" fill="#FFFFFF" />
<rect x="28" y="41" width="1" height="4" fill="#FFFFFF" />
<rect x="51" y="41" width="1" height="3" fill="#FFFFFF" />
<rect x="57" y="41" width="1" height="2" fill="#FFFFFF" />
<rect x="79" y="41" width="1" height="6" fill="#FFFFFF" />
<rect x="92" y="41" width="3" height="1" fill="#FFFFFF" />
<rect x="13" y="42" width="1" height="2" fill="#FFFFFF" />
<rect x="17" y="42" width="3" height="1" fill="#FFFFFF" />
<rect x="25" y="42" width="3" height="1" fill="#FFFFFF" />
<rect x="29" y="42" width="1" height="3" fill="#FFFFFF" />
<rect x="49" y="42" width="1" height="1" fill="#FFFFFF" />
<rect x="56" y="42" width="1" height="2" fill="#FFFFFF" />
<rect x="65" y="42" width="1" height="4" fill="#FFFFFF" />
<rect x="91" y="42" width="2" height="1" fill="#FFFFFF" />
<rect x="16" y="43" width="2" height="1" fill="#FFFFFF" />
<rect x="27" y="43" width="1" height="1" fill="#FFFFFF" />
<rect x="47" y="43" width="2" height="1" fill="#FFFFFF" />
<rect x="52" y="43" width="1" height="2" fill="#FFFFFF" />
<rect x="55" y="43" width="1" height="2" fill="#FFFFFF" />
<rect x="89" y="43" width="2" height="1" fill="#FFFFFF" />
<rect x="45" y="44" width="3" height="1" fill="#FFFFFF" />
<rect x="53" y="44" width="2" height="2" fill="#FFFFFF" />
<rect x="87" y="44" width="2" height="1" fill="#FFFFFF" />
<rect x="45" y="45" width="1" height="1" fill="#FFFFFF" />
<rect x="85" y="45" width="2" height="1" fill="#FFFFFF" />
<rect x="80" y="46" width="6" height="1" fill="#FFFFFF" />
</svg>